<svg width="463" height="461" xmlns="http://www.w3.org/2000/svg" xmlns:xlink="http://www.w3.org/1999/xlink" overflow="hidden"><defs><clipPath id="clip0"><rect x="753" y="0" width="463" height="461"/></clipPath><clipPath id="clip1"><rect x="754" y="0" width="461" height="461"/></clipPath><clipPath id="clip2"><rect x="754" y="0" width="461" height="462"/></clipPath><clipPath id="clip3"><rect x="754" y="0" width="461" height="462"/></clipPath></defs><g clip-path="url(#clip0)" transform="translate(-753 0)"><g clip-path="url(#clip1)"><g clip-path="url(#clip2)"><g clip-path="url(#clip3)"><path d="M1123.76 379.365 1123.76 91.2396C1123.76 63.1666 1052.01 48.0208 984.5 48.0208 916.988 48.0208 845.24 63.1666 845.24 91.2396L845.24 379.365C845.24 407.438 916.988 422.583 984.5 422.583 1052.01 422.583 1123.76 407.438 1123.76 379.365ZM984.5 57.625C1058.71 57.625 1114.16 75.3927 1114.16 91.2396 1114.16 107.086 1058.71 124.854 984.5 124.854 910.293 124.854 854.844 107.086 854.844 91.2396 854.844 75.3927 910.293 57.625 984.5 57.625ZM854.844 107.855C876.592 125.238 931.836 134.458 984.5 134.458 1037.16 134.458 1092.41 125.238 1114.16 107.855L1114.16 187.281C1114.16 203.128 1058.71 220.896 984.5 220.896 910.293 220.896 854.844 203.128 854.844 187.281ZM854.844 203.896C876.592 221.28 931.836 230.5 984.5 230.5 1037.16 230.5 1092.41 221.28 1114.16 203.896L1114.16 283.323C1114.16 299.17 1058.71 316.938 984.5 316.938 910.293 316.938 854.844 299.17 854.844 283.323ZM854.844 379.365 854.844 299.938C876.592 317.322 931.836 326.542 984.5 326.542 1037.16 326.542 1092.41 317.322 1114.16 299.938L1114.16 379.365C1114.16 395.211 1058.71 412.979 984.5 412.979 910.293 412.979 854.844 395.211 854.844 379.365Z" fill="#4F6366" fill-rule="nonzero" fill-opacity="1"/><path d="M1090.15 172.875C1090.15 178.179 1085.85 182.479 1080.54 182.479 1075.24 182.479 1070.94 178.179 1070.94 172.875 1070.94 167.571 1075.24 163.271 1080.54 163.271 1085.85 163.271 1090.15 167.571 1090.15 172.875Z" fill="#4F6366" fill-rule="nonzero" fill-opacity="1"/><path d="M1090.15 268.917C1090.15 274.221 1085.85 278.521 1080.54 278.521 1075.24 278.521 1070.94 274.221 1070.94 268.917 1070.94 263.612 1075.24 259.312 1080.54 259.312 1085.85 259.312 1090.15 263.612 1090.15 268.917Z" fill="#4F6366" fill-rule="nonzero" fill-opacity="1"/><path d="M1090.15 364.958C1090.15 370.263 1085.85 374.562 1080.54 374.562 1075.24 374.562 1070.94 370.263 1070.94 364.958 1070.94 359.654 1075.24 355.354 1080.54 355.354 1085.85 355.354 1090.15 359.654 1090.15 364.958Z" fill="#4F6366" fill-rule="nonzero" fill-opacity="1"/></g></g></g></g></svg>