<svg width="464" height="461" xmlns="http://www.w3.org/2000/svg" xmlns:xlink="http://www.w3.org/1999/xlink" overflow="hidden"><defs><clipPath id="clip0"><rect x="48" y="0" width="464" height="461"/></clipPath><clipPath id="clip1"><rect x="49" y="0" width="462" height="461"/></clipPath><clipPath id="clip2"><rect x="49" y="0" width="462" height="462"/></clipPath><clipPath id="clip3"><rect x="49" y="0" width="462" height="462"/></clipPath></defs><g clip-path="url(#clip0)" transform="translate(-48 0)"><g clip-path="url(#clip1)"><g clip-path="url(#clip2)"><g clip-path="url(#clip3)"><path d="M348.151 144.062C306.325 144.062 270.746 175.348 230.5 222.673 190.302 175.396 154.704 144.062 112.849 144.062 65.111 145.394 27.4908 185.173 28.8223 232.911 30.1016 278.777 66.9828 315.658 112.849 316.938 154.31 316.938 187.646 287.914 230.5 237.703 273.354 287.914 306.69 316.938 348.151 316.938 395.889 315.606 433.509 275.827 432.178 228.089 430.899 182.223 394.017 145.342 348.151 144.062ZM112.849 307.333C70.4149 305.991 37.1036 270.504 38.4456 228.07 39.728 187.521 72.3002 154.949 112.849 153.667 151.453 153.667 185.423 184.246 224.315 230.193 182.729 279.078 150.987 307.333 112.849 307.333ZM348.151 307.333C310.013 307.333 278.271 279.083 236.69 230.197 275.64 184.198 309.576 153.667 348.151 153.667 390.585 155.009 423.896 190.496 422.555 232.93 421.272 273.479 388.7 306.051 348.151 307.333Z" fill="#4F6366" fill-rule="nonzero" fill-opacity="1" transform="matrix(1.00217 0 0 1 49 0)"/></g></g></g></g></svg>