<svg width="463" height="464" xmlns="http://www.w3.org/2000/svg" xmlns:xlink="http://www.w3.org/1999/xlink" overflow="hidden"><defs><clipPath id="clip0"><rect x="753" y="460" width="463" height="464"/></clipPath><clipPath id="clip1"><rect x="754" y="461" width="461" height="462"/></clipPath><clipPath id="clip2"><rect x="754" y="461" width="461" height="462"/></clipPath><clipPath id="clip3"><rect x="754" y="461" width="461" height="462"/></clipPath></defs><g clip-path="url(#clip0)" transform="translate(-753 -460)"><g clip-path="url(#clip1)"><g clip-path="url(#clip2)"><g clip-path="url(#clip3)"><path d="M96.0417 76.8333 117.344 76.8333C129.219 129.258 163.17 199.767 200.554 230.562 163.16 261.339 130.617 330.547 119.092 384.167L96.0417 384.167 96.0417 422.583 364.958 422.583 364.958 384.167 343.277 384.167C331.646 331.992 297.729 261.598 259.966 230.562 297.763 199.498 331.699 129.042 343.306 76.8333L364.958 76.8333 364.958 38.4167 96.0417 38.4167ZM355.354 412.979 105.646 412.979 105.646 393.771 151.746 393.771 151.635 393.881 309.355 393.881 309.254 393.771 355.354 393.771ZM174.925 384.167 230.562 328.535 286.089 384.167ZM249.295 226.658C247.143 228.208 246.655 231.209 248.205 233.362 248.507 233.781 248.875 234.15 249.295 234.452 286.684 261.411 321.283 331.651 333.471 384.167L299.65 384.167 230.572 314.945 161.35 384.167 128.854 384.167C140.759 331.229 174.599 260.84 211.21 234.462 213.362 232.912 213.851 229.911 212.301 227.758 211.999 227.339 211.63 226.97 211.21 226.668 174.205 200.002 139.592 129.656 127.154 76.8333L333.505 76.8333C321.341 129.378 286.752 199.68 249.295 226.658ZM105.646 48.0208 355.354 48.0208 355.354 67.2292 105.646 67.2292Z" fill="#4F6366" fill-rule="nonzero" fill-opacity="1" transform="matrix(1 0 0 1.00217 754 461)"/><path d="M158.2 136.466C175.751 174.637 197.097 204.655 216.824 218.874L225.698 225.271 225.698 230.5 235.302 230.5 235.302 224.915 243.682 218.874C263.625 204.506 285.095 174.469 302.589 136.466L305.725 129.656 155.069 129.656ZM290.641 139.26C274.487 172.544 255.533 198.499 238.063 211.085L230.25 216.713 222.442 211.085C205.188 198.657 186.321 172.697 170.138 139.26Z" fill="#4F6366" fill-rule="nonzero" fill-opacity="1" transform="matrix(1 0 0 1.00217 754 461)"/><path d="M225.698 259.312 235.302 259.312 235.302 268.917 225.698 268.917Z" fill="#4F6366" fill-rule="nonzero" fill-opacity="1" transform="matrix(1 0 0 1.00217 754 461)"/><path d="M225.698 278.521 235.302 278.521 235.302 288.125 225.698 288.125Z" fill="#4F6366" fill-rule="nonzero" fill-opacity="1" transform="matrix(1 0 0 1.00217 754 461)"/><path d="M225.698 240.104 235.302 240.104 235.302 249.708 225.698 249.708Z" fill="#4F6366" fill-rule="nonzero" fill-opacity="1" transform="matrix(1 0 0 1.00217 754 461)"/><path d="M225.698 297.729 235.302 297.729 235.302 307.333 225.698 307.333Z" fill="#4F6366" fill-rule="nonzero" fill-opacity="1" transform="matrix(1 0 0 1.00217 754 461)"/></g></g></g></g></svg>