<svg width="464" height="464" xmlns="http://www.w3.org/2000/svg" xmlns:xlink="http://www.w3.org/1999/xlink" overflow="hidden"><defs><clipPath id="clip0"><rect x="48" y="460" width="464" height="464"/></clipPath><clipPath id="clip1"><rect x="49" y="461" width="462" height="462"/></clipPath><clipPath id="clip2"><rect x="49" y="461" width="462" height="462"/></clipPath><clipPath id="clip3"><rect x="49" y="461" width="462" height="462"/></clipPath></defs><g clip-path="url(#clip0)" transform="translate(-48 -460)"><g clip-path="url(#clip1)"><g clip-path="url(#clip2)"><g clip-path="url(#clip3)"><path d="M453.25 831.562 318.5 831.562 318.5 812.312 284.812 812.312 284.812 769 414.75 769C425.381 769 434 760.381 434 749.75L434 701.625C433.982 696.076 431.555 690.807 427.349 687.188 431.555 683.568 433.982 678.299 434 672.75L434 624.625C433.982 619.076 431.555 613.807 427.349 610.188 431.555 606.568 433.982 601.299 434 595.75L434 547.625C434 536.994 425.381 528.375 414.75 528.375L145.25 528.375C134.619 528.375 126 536.994 126 547.625L126 595.75C126.018 601.299 128.445 606.568 132.651 610.188 128.445 613.807 126.018 619.076 126 624.625L126 672.75C126.018 678.299 128.445 683.568 132.651 687.188 128.445 690.807 126.018 696.076 126 701.625L126 749.75C126 760.381 134.619 769 145.25 769L275.188 769 275.188 812.312 241.5 812.312 241.5 831.562 106.75 831.562 106.75 841.188 241.5 841.188 241.5 860.438 318.5 860.438 318.5 841.188 453.25 841.188ZM135.625 595.75 135.625 547.625C135.625 542.309 139.934 538 145.25 538L414.75 538C420.066 538 424.375 542.309 424.375 547.625L424.375 595.75C424.375 601.066 420.066 605.375 414.75 605.375L145.25 605.375C139.934 605.375 135.625 601.066 135.625 595.75ZM135.625 672.75 135.625 624.625C135.625 619.309 139.934 615 145.25 615L414.75 615C420.066 615 424.375 619.309 424.375 624.625L424.375 672.75C424.375 678.066 420.066 682.375 414.75 682.375L145.25 682.375C139.934 682.375 135.625 678.066 135.625 672.75ZM135.625 749.75 135.625 701.625C135.625 696.309 139.934 692 145.25 692L414.75 692C420.066 692 424.375 696.309 424.375 701.625L424.375 749.75C424.375 755.066 420.066 759.375 414.75 759.375L145.25 759.375C139.934 759.375 135.625 755.066 135.625 749.75ZM308.875 850.812 251.125 850.812 251.125 821.938 308.875 821.938Z" fill="#4F6366" fill-rule="nonzero" fill-opacity="1"/><path d="M183.75 571.688C183.75 577.003 179.441 581.312 174.125 581.312 168.809 581.312 164.5 577.003 164.5 571.688 164.5 566.372 168.809 562.062 174.125 562.062 179.441 562.062 183.75 566.372 183.75 571.688Z" fill="#4F6366" fill-rule="nonzero" fill-opacity="1"/><path d="M231.875 571.688C231.875 577.003 227.566 581.312 222.25 581.312 216.934 581.312 212.625 577.003 212.625 571.688 212.625 566.372 216.934 562.062 222.25 562.062 227.566 562.062 231.875 566.372 231.875 571.688Z" fill="#4F6366" fill-rule="nonzero" fill-opacity="1"/><path d="M280 571.688C280 577.003 275.691 581.312 270.375 581.312 265.059 581.312 260.75 577.003 260.75 571.688 260.75 566.372 265.059 562.062 270.375 562.062 275.691 562.062 280 566.372 280 571.688Z" fill="#4F6366" fill-rule="nonzero" fill-opacity="1"/><path d="M183.75 648.688C183.75 654.003 179.441 658.312 174.125 658.312 168.809 658.312 164.5 654.003 164.5 648.688 164.5 643.372 168.809 639.062 174.125 639.062 179.441 639.062 183.75 643.372 183.75 648.688Z" fill="#4F6366" fill-rule="nonzero" fill-opacity="1"/><path d="M231.875 648.688C231.875 654.003 227.566 658.312 222.25 658.312 216.934 658.312 212.625 654.003 212.625 648.688 212.625 643.372 216.934 639.062 222.25 639.062 227.566 639.062 231.875 643.372 231.875 648.688Z" fill="#4F6366" fill-rule="nonzero" fill-opacity="1"/><path d="M280 648.688C280 654.003 275.691 658.312 270.375 658.312 265.059 658.312 260.75 654.003 260.75 648.688 260.75 643.372 265.059 639.062 270.375 639.062 275.691 639.062 280 643.372 280 648.688Z" fill="#4F6366" fill-rule="nonzero" fill-opacity="1"/><path d="M183.75 725.688C183.75 731.003 179.441 735.312 174.125 735.312 168.809 735.312 164.5 731.003 164.5 725.688 164.5 720.372 168.809 716.062 174.125 716.062 179.441 716.062 183.75 720.372 183.75 725.688Z" fill="#4F6366" fill-rule="nonzero" fill-opacity="1"/><path d="M231.875 725.688C231.875 731.003 227.566 735.312 222.25 735.312 216.934 735.312 212.625 731.003 212.625 725.688 212.625 720.372 216.934 716.062 222.25 716.062 227.566 716.062 231.875 720.372 231.875 725.688Z" fill="#4F6366" fill-rule="nonzero" fill-opacity="1"/><path d="M280 725.688C280 731.003 275.691 735.312 270.375 735.312 265.059 735.312 260.75 731.003 260.75 725.688 260.75 720.372 265.059 716.062 270.375 716.062 275.691 716.062 280 720.372 280 725.688Z" fill="#4F6366" fill-rule="nonzero" fill-opacity="1"/></g></g></g></g></svg>